<?xml version="1.0" encoding="UTF-8"?>
<svg width="431px" height="431px" viewBox="0 0 431 431" version="1.1" xmlns="http://www.w3.org/2000/svg" xmlns:xlink="http://www.w3.org/1999/xlink">
    <!-- Generator: Sketch 43.2 (39069) - http://www.bohemiancoding.com/sketch -->
    <title>LinkedIn__x28_alt_x29_</title>
    <desc>Created with Sketch.</desc>
    <defs></defs>
    <g id="Page-1" stroke="none" stroke-width="1" fill="none" fill-rule="evenodd">
        <path d="M398.355,0 L31.782,0 C14.229,0 0.002,13.793 0.002,30.817 L0.002,399.288 C0.002,416.313 14.234,430.118 31.782,430.118 L398.355,430.118 C415.904,430.118 430.115,416.304 430.115,399.288 L430.115,30.817 C430.115,13.798 415.904,0 398.355,0 Z M130.4,360.038 L65.413,360.038 L65.413,165.845 L130.4,165.845 L130.4,360.038 Z M97.913,139.315 L97.476,139.315 C75.683,139.315 61.556,124.411 61.556,105.752 C61.556,86.717 76.098,72.217 98.323,72.217 C120.55,72.217 134.222,86.713 134.654,105.752 C134.654,124.415 120.555,139.315 97.913,139.315 Z M364.659,360.038 L299.693,360.038 L299.693,256.138 C299.693,230.031 290.28,212.217 266.786,212.217 C248.813,212.217 238.144,224.235 233.459,235.838 C231.723,239.982 231.293,245.778 231.293,251.566 L231.293,360.034 L166.339,360.034 C166.339,360.034 167.189,184.055 166.339,165.842 L231.303,165.842 L231.303,193.373 C239.927,180.144 255.338,161.273 289.837,161.273 C332.597,161.273 364.659,189.012 364.659,248.687 L364.659,360.038 Z M230.883,193.99 C230.994,193.808 231.149,193.589 231.303,193.376 L231.303,193.99 L230.883,193.99 Z" id="LinkedIn__x28_alt_x29_" fill="#FFFFFF" fill-rule="nonzero"></path>
    </g>
</svg>